<svg xmlns="http://www.w3.org/2000/svg" xmlns:xlink="http://www.w3.org/1999/xlink" width="1013.7" height="892.3" class="c" color-interpolation-filters="sRGB" viewBox="0 0 760.3 669.3"><style>.o{stroke:#000;stroke-linecap:round;stroke-linejoin:round;stroke-width:.75}.n{fill:#000;font-family:Calibri;font-size:.66em}.m{font-size:1em}.e,.l{stroke:#000;stroke-linecap:round;stroke-linejoin:round;stroke-width:.75}.e{fill:#fff}.l{stroke-dasharray:5.25,3.75}.k{fill:#000;font-family:Calibri;font-size:1em;font-weight:700}.i,.j{stroke:#000}.j{marker-end:url(#b);stroke-linecap:round;stroke-linejoin:round;stroke-width:.75}.i{fill:#000;fill-opacity:1;stroke-opacity:1;stroke-width:.18796992481203}.h{stroke-width:7.2}.a,.h{fill:#fff;stroke:none;stroke-linecap:butt}.b,.g{marker-end:url(#d);stroke:#000;stroke-linecap:round;stroke-linejoin:round;stroke-width:.75}.b{stroke-dasharray:5.25,3.75}.f,.o4{font-family:Segoe UI Emoji;font-size:1em}.o4{fill:#000;font-size:.66em}.d{font-family:Calibri;font-size:1em}.c{fill:none;fill-rule:evenodd;font-size:12px;overflow:visible;stroke-linecap:square;stroke-miterlimit:3}</style><defs><path id="a" d="M2 1L0 0l2-1v2"/><marker id="b" class="i" orient="auto" overflow="visible" refX="-10.6"><use transform="scale(-5.32)" xlink:href="#a"/></marker><path id="c" fill="none" stroke-linecap="round" stroke-linejoin="round" d="M2 1L0 0l2-1"/><marker id="d" class="i" orient="auto" overflow="visible"><use transform="scale(-5.32)" xlink:href="#c"/></marker></defs><g><g><path d="M29 669.3l-3.7 8.7" class="o" transform="translate(602.4 -622.2)"/><text x="4.2" y="652" class="n" transform="translate(602.4 -622.2)">E.g.: “manifest-file-<tspan x="17.9" class="m" dy="1.2em">extension</tspan>”</text></g><g><path d="M0 643.7h51v25.5H0z" class="e" transform="translate(428 -588)"/><path d="M25.5 669.3v550" class="l" transform="translate(428 -588)"/><g><path d="M0 643.7h51v25.5H0z" class="e" transform="translate(428 -588)"/><text x="11.1" y="660.1" class="k" transform="translate(428 -588)">hint 1</text></g></g><g><g><path d="M6.8 643.7h51v25.5h-51z" class="e" transform="translate(328 -588)"/><path d="M32.3 669.3v550" class="l" transform="translate(328 -588)"/><g><path d="M0 643.7h64.6v25.5H0z" class="e" transform="translate(328 -588)"/><text x="7.1" y="660.1" class="k" transform="translate(328 -588)">connector</text></g></g><g><path d="M0 660.7h346v8.5H0z" class="e" transform="rotate(-90 118 422.7)"/></g></g><g><path d="M0 643.7h51v25.5H0z" class="e" transform="translate(218.2 -588)"/><path d="M25.5 669.3v551.5" class="l" transform="translate(218.2 -588)"/><g><path d="M0 643.7h51v25.5H0z" class="e" transform="translate(218.2 -588)"/><text x="8.8" y="660.1" class="k" transform="translate(218.2 -588)">Engine</text></g></g><g><path d="M0 643.7h51v25.5H0z" class="e" transform="translate(136 -588)"/><path d="M25.5 669.3v551.5" class="l" transform="translate(136 -588)"/><g><path d="M0 643.7h51v25.5H0z" class="e" transform="translate(136 -588)"/><text x="18.2" y="660.1" class="k" transform="translate(136 -588)">CLI</text></g></g><g><path d="M0 660.7h362.9v8.5H0z" class="e" transform="rotate(-90 63.8 485.1)"/></g><g><path d="M0 660.7h513.6v8.5H0z" class="e" transform="rotate(-90 62.7 566.2)"/></g><g><path d="M0 643.7h51v25.5H0z" class="e" transform="translate(515.9 -588)"/><path d="M25.5 669.3v552.3" class="l" transform="translate(515.9 -588)"/><g><path d="M0 643.7h51v25.5H0z" class="e" transform="translate(515.9 -588)"/><text x="5.3" y="660.1" class="k" transform="translate(515.9 -588)">parser 1</text></g></g><g><path d="M25.5 669.3v552.3" class="l" transform="translate(596.6 -588)"/><path d="M0 643.7h51v25.5H0z" class="e" transform="translate(596.6 -588)"/><g><path d="M0 643.7h51v25.5H0z" class="e" transform="translate(596.6 -588)"/><text x="11.1" y="660.1" class="k" transform="translate(596.6 -588)">hint 2</text></g></g><g><path d="M6.8 643.7h51v25.5h-51z" class="e" transform="translate(668.1 -588)"/><path d="M32.3 669.3v551.5" class="l" transform="translate(668.1 -588)"/><g><path d="M0 643.7h64.6v25.5H0z" class="e" transform="translate(668.1 -588)"/><text x="7.9" y="660.1" class="k" transform="translate(668.1 -588)">formatter</text></g></g><g><path d="M7 669.3h18v34H15" class="j" transform="translate(158.7 -537)"/><path d="M-28.6 676.7h71.3v19.2h-71.3z" class="h" transform="translate(158.7 -537)"/><text x="-15.2" y="683.9" class="n" transform="translate(158.7 -537)">Configuration<tspan x="-28.6" class="m" dy="1.2em">(hidden for simplicity)</tspan></text></g><g><path d="M0 662.3l109.7-.2" class="j" transform="translate(43.9 -546.8)"/><path d="M17 657.4h83.6v9.6H17z" class="a" transform="translate(43.9 -546.8)"/><text x="17" y="664.6" class="n" transform="translate(43.9 -546.8)">hint https://example.com</text></g><g><path d="M0 662.2h73.8" class="g" transform="translate(165.8 -476)"/><path d="M19.3 657.4h35.2v9.6H19.3z" class="a" transform="translate(165.8 -476)"/><text x="19.3" y="664.6" class="n" transform="translate(165.8 -476)">executeOn</text></g><g><path d="M0 662.3l108-.3" class="g" transform="translate(248 -467.4)"/><path d="M43.3 657.4h21.3v9.6H43.3z" class="h" transform="translate(248 -467.4)"/><text x="43.3" y="664.6" class="n" transform="translate(248 -467.4)">collect</text></g><g><path d="M0 662.8l-73.7-1.3" class="b" transform="translate(239.5 -113.8)"/><path d="M-48.7 657.4h23.8v9.6h-23.8z" class="h" transform="translate(239.5 -113.8)"/><text x="-48.7" y="664.6" class="n" transform="translate(239.5 -113.8)">reports</text></g><g><path d="M0 662.2h-108" class="b" transform="translate(356 -450.5)"/><path d="M-85.9 652.4H-22v19.4h-63.9z" class="h" transform="translate(356 -450.5)"/><text x="-79.6" y="659.8" class="n" transform="translate(356 -450.5)">on(&quot;<tspan class="f">⚡</tspan> Name&quot;)<tspan x="-85.9" class="m" dy="1.2em">E.g.: </tspan>&quot;can-evaluate&quot;</text></g><g><path d="M0 643.7h51v25.5H0z" class="e" transform="translate(18.4 -587.8)"/><path d="M20.4 640.2v-17 6.8H17v-13.6l1.7-1.7h13.6l1.7 1.7V630h-3.4v-6.8 17h-5v-13.6 13.6h-5.2zm8.5-30.6a3.4 3.4 0 1 0-6.8 0 3.4 3.4 0 1 0 6.8 0z" class="e" transform="translate(18.4 -587.8)"/><path d="M25.5 669.3v551.3" class="l" transform="translate(18.4 -587.8)"/><g><path d="M0 643.7h51v25.5H0z" class="e" transform="translate(18.4 -587.8)"/><text x="14.1" y="660.1" class="k" transform="translate(18.4 -587.8)">User</text></g></g><g><path d="M0 663.3l201-2.3" class="g" transform="translate(248 -426.1)"/><path d="M69.6 652.4h61.9v19.4H69.6z" class="h" transform="translate(248 -426.1)"/><text x="85.2" y="659.8" class="o4" transform="translate(248 -426.1)">⚡<tspan class="d"> </tspan><tspan class="d">Event</tspan><tspan x="69.6" class="d" dy="1.2em">E.g: &quot;can</tspan><tspan class="d">-</tspan><tspan class="d">evaluate&quot;</tspan></text></g><g><path d="M0 660.7h67.1v8.5H0z" class="e" transform="rotate(-90 45.2 256.8)"/></g><g><path d="M7 669.3h18v34H15" class="j" transform="translate(450.6 -417.4)"/><path d="M-20.1 681.5h54.4v9.6h-54.4z" class="h" transform="translate(450.6 -417.4)"/><text x="-20.1" y="688.7" class="n" transform="translate(450.6 -417.4)">Analyze for hints</text></g><g><path d="M0 676l-200 .6" class="b" transform="translate(448 -374)"/><path d="M-119.2 671.5h38.4v9.6h-38.4z" class="h" transform="translate(448 -374)"/><text x="-119.2" y="678.7" class="n" transform="translate(448 -374)">report(hint)</text></g><g><path d="M0 663.3l-108-2.2" class="b" transform="translate(356.1 -335.2)"/><path d="M-90.6 652.4h73.2v19.4h-73.2z" class="h" transform="translate(356.1 -335.2)"/><text x="-79.7" y="659.8" class="n" transform="translate(356.1 -335.2)">on(&quot;<tspan class="f">⚡</tspan> Name&quot;)<tspan x="-90.6" class="m" dy="1.2em">E.g.: &quot;fetch::end::json&quot;</tspan></text></g><g><path d="M0 662.8l289.5-1.3" class="g" transform="translate(248 -315)"/><path d="M108.2 652.4h73.2v19.4h-73.2z" class="a" transform="translate(248 -315)"/><text x="129.4" y="659.8" class="o4" transform="translate(248 -315)">⚡<tspan class="d"> </tspan><tspan class="d">Event</tspan><tspan x="108.2" class="d" dy="1.2em">E.g.: &quot;fetch::end::json&quot;</tspan></text></g><g><path d="M0 660.7h73.7v8.5H0z" class="e" transform="rotate(-90 148.5 271.7)"/></g><g><path d="M7 669.3h18v34H15" class="j" transform="translate(539 -305.8)"/><path d="M-20.7 681.5h55.5v9.6h-55.5z" class="a" transform="translate(539 -305.8)"/><text x="-20.7" y="688.7" class="n" transform="translate(539 -305.8)">Analyze resource</text></g><g><path d="M0 676l-289.5.6" class="b" transform="translate(537.5 -258.7)"/><path d="M-190.9 666.6h92.2V686h-92.2z" class="a" transform="translate(537.5 -258.7)"/><text x="-170.4" y="674" class="n" transform="translate(537.5 -258.7)">on(&quot;<tspan class="f">⚡</tspan> Name&quot;)<tspan x="-190.9" class="m" dy="1.2em">E.g.: &quot;parser::manifest::end&quot;</tspan></text></g><g><path d="M0 662.6l369.9-1" class="g" transform="translate(248 -221.7)"/><path d="M138.8 652.4H231v19.4h-92.2z" class="h" transform="translate(248 -221.7)"/><text x="169.6" y="659.8" class="o4" transform="translate(248 -221.7)">⚡<tspan class="d"> </tspan><tspan class="d">Event</tspan><tspan x="138.8" class="d" dy="1.2em">E.g.: &quot;parser::manifest::end&quot;</tspan></text></g><g><path d="M0 660.7h73.7v8.5H0z" class="e" transform="rotate(-90 235.4 278.3)"/></g><g><path d="M7 669.3h18v34H15" class="j" transform="translate(619.3 -212.2)"/><path d="M-20.1 681.5h54.4v9.6h-54.4z" class="h" transform="translate(619.3 -212.2)"/><text x="-20.1" y="688.7" class="n" transform="translate(619.3 -212.2)">Analyze for hints</text></g><g><path d="M0 675.2l-369.8 2.3" class="b" transform="translate(617.9 -164.3)"/><path d="M-204.1 671.5h38.4v9.6h-38.4z" class="h" transform="translate(617.9 -164.3)"/><text x="-204.1" y="678.7" class="n" transform="translate(617.9 -164.3)">report(hint)</text></g><g><path d="M0 676l-108 .6" class="b" transform="translate(356 -135.4)"/><path d="M-89.8 657.1h71.7v38.4h-71.7z" class="h" transform="translate(356 -135.4)"/><text x="-89.8" y="664.3" class="n" transform="translate(356 -135.4)">collect() returns when<tspan x="-62.5" class="m" dy="1.2em">all its</tspan><tspan x="-74.4" class="m" dy="1.2em"> </tspan>events have<tspan x="-76" class="m" dy="1.2em">been emitted</tspan></text></g><g><path d="M0 662.8l530.4-1.2" class="g" transform="translate(165.8 -95.6)"/><path d="M239.7 657.4h51v9.6h-51z" class="a" transform="translate(165.8 -95.6)"/><text x="239.7" y="664.6" class="n" transform="translate(165.8 -95.6)">format(reports)</text></g><g><path d="M0 660.7h53.9v8.5H0z" class="e" transform="rotate(-90 327.6 292.2)"/></g><g><path d="M7 669.3h18v34H15" class="j" transform="translate(697.6 -94.2)"/><path d="M-25.6 671.9h65.4v28.8h-65.4z" class="h" transform="translate(697.6 -94.2)"/><text x="-25.6" y="679.1" class="n" transform="translate(697.6 -94.2)">print on the console<tspan x="-14.8" class="m" dy="1.2em">write an html</tspan><tspan x="4.1" class="m" dy="1.2em">...</tspan></text></g><g><path d="M0 675l-524.4 2.8" class="b" transform="translate(690.2 -59.1)"/></g><g><path d="M0 676.3l-113.4.1" class="b" transform="translate(157.3 -50.7)"/><path d="M-71 671.5h28.6v9.6H-71z" class="a" transform="translate(157.3 -50.7)"/><text x="-71" y="678.7" class="n" transform="translate(157.3 -50.7)">exitCode</text></g><g><path d="M49 669.3L46.3 680" class="o" transform="translate(411 -627.9)"/><text x="37.8" y="660.3" class="n" transform="translate(411 -627.9)">E.g.: axe</text></g><g><path d="M48.4 669.3L45 680.8" class="o" transform="translate(501.1 -628.6)"/><text x="16" y="660.3" class="n" transform="translate(501.1 -628.6)">E.g.: “paser-manifest”</text></g></g></svg>